<?xml version="1.0" encoding="utf-8"?>
<!-- Generator: Adobe Illustrator 27.2.0, SVG Export Plug-In . SVG Version: 6.00 Build 0)  -->
<svg version="1.1" id="Layer_1" xmlns="http://www.w3.org/2000/svg" xmlns:xlink="http://www.w3.org/1999/xlink" x="0px" y="0px"
	 viewBox="0 0 24 96" style="enable-background:new 0 0 24 96;" xml:space="preserve">
<style type="text/css">
	.st0{fill:#6D6D78;}
</style>
<path class="st0" d="M12,0.3c-1.8,0-3.5,0.6-5,1.6c-1.5,1-2.6,2.5-3.2,4.2c-0.6,1.7-0.7,3.5-0.2,5.2c0.5,1.7,1.5,3.3,2.9,4.4
	l-3.4,6.5l3.2,1.7l3.5-6.6c0.7,0.2,1.5,0.3,2.3,0.3c2.3,0,4.5-0.9,6.1-2.5c1.6-1.6,2.5-3.8,2.5-6.1c0-2.3-0.9-4.5-2.5-6.1
	C16.5,1.2,14.3,0.3,12,0.3z M12,16.3c-0.5,0-1.1-0.1-1.6-0.2c-0.4-0.1-0.9-0.2-1.3-0.4c-0.3-0.1-0.5-0.2-0.8-0.4
	c-0.4-0.2-0.8-0.5-1.1-0.8c-1.3-1.1-2.1-2.7-2.4-4.4c-0.3-1.7,0.1-3.4,1-4.9C6.6,3.8,8,2.7,9.6,2.1c1.6-0.6,3.4-0.5,5,0.1
	s2.9,1.8,3.8,3.2c0.8,1.5,1.1,3.2,0.8,4.9c-0.3,1.7-1.2,3.2-2.5,4.3S13.7,16.3,12,16.3z M5.7,22.1l-0.8-0.4l2.7-5.2
	c0.3,0.2,0.5,0.3,0.8,0.4L5.7,22.1z"/>
</svg>
