<svg width="24" height="96" fill="none" xmlns="http://www.w3.org/2000/svg"><path d="M11.342 19.5v-6.846H4.5v-1.35h6.842V4.5h1.35v6.804H19.5v1.35h-6.807V19.5h-1.35z" fill="#FC5200"/><path fill-rule="evenodd" clip-rule="evenodd" d="M5.514 21.707A11.676 11.676 0 0 0 12 23.675 11.688 11.688 0 0 0 23.675 12a11.675 11.675 0 1 0-18.161 9.707zm.75-18.292A10.325 10.325 0 0 1 12 1.675 10.337 10.337 0 0 1 22.325 12 10.324 10.324 0 1 1 6.264 3.415zM12 47.675A11.676 11.676 0 1 1 23.675 36 11.688 11.688 0 0 1 12 47.675zm-.675-4.175v-6.825H4.5v-1.35h6.825V28.5h1.35v6.825H19.5v1.35h-6.825V43.5h-1.35z" fill="#FC5200"/></svg>